<svg width="42" height="42" viewBox="0 0 42 42" fill="none" xmlns="http://www.w3.org/2000/svg">
<path d="M29.75 35C31.683 35 33.25 33.433 33.25 31.5C33.25 29.567 31.683 28 29.75 28C27.817 28 26.25 29.567 26.25 31.5C26.25 33.433 27.817 35 29.75 35Z" stroke="#AD49E1" stroke-width="1.5" stroke-linecap="round" stroke-linejoin="round"/>
<path d="M12.25 35C14.183 35 15.75 33.433 15.75 31.5C15.75 29.567 14.183 28 12.25 28C10.317 28 8.75 29.567 8.75 31.5C8.75 33.433 10.317 35 12.25 35Z" stroke="#AD49E1" stroke-width="1.5" stroke-linecap="round" stroke-linejoin="round"/>
<path d="M8.75 31.451C6.83025 31.3565 5.635 31.0712 4.781 30.219C3.927 29.3667 3.6435 28.1698 3.549 26.25M15.75 31.5H26.25M33.25 31.451C35.1698 31.3565 36.365 31.0712 37.219 30.219C38.5 28.9362 38.5 26.8748 38.5 22.75V19.25H30.275C28.9712 19.25 28.3202 19.25 27.7935 19.0785C27.2682 18.9078 26.7908 18.6152 26.4003 18.2247C26.0098 17.8342 25.7172 17.3568 25.5465 16.8315C25.375 16.3048 25.375 15.6537 25.375 14.35C25.375 12.3952 25.375 11.4187 25.1177 10.6277C24.8617 9.83986 24.4229 9.12374 23.8371 8.53793C23.2513 7.95213 22.5351 7.51328 21.7473 7.25725C20.9563 7 19.9798 7 18.025 7H3.5M3.5 14H14M3.5 19.25H10.5" stroke="#AD49E1" stroke-width="1.5" stroke-linecap="round" stroke-linejoin="round"/>
<path d="M25.375 10.5H28.5617C31.1097 10.5 32.382 10.5 33.418 11.1195C34.4558 11.7373 35.0595 12.859 36.267 15.1025L38.5 19.25" stroke="#AD49E1" stroke-width="1.5" stroke-linecap="round" stroke-linejoin="round"/>
</svg>
